<?xml version="1.0" encoding="UTF-8" standalone="no"?>
<svg
   xmlns:dc="http://purl.org/dc/elements/1.1/"
   xmlns:cc="http://creativecommons.org/ns#"
   xmlns:rdf="http://www.w3.org/1999/02/22-rdf-syntax-ns#"
   xmlns:svg="http://www.w3.org/2000/svg"
   xmlns="http://www.w3.org/2000/svg"
   xmlns:sodipodi="http://sodipodi.sourceforge.net/DTD/sodipodi-0.dtd"
   xmlns:inkscape="http://www.inkscape.org/namespaces/inkscape"
   preserveAspectRatio="xMidYMid"
   width="57"
   height="46"
   viewBox="0 0 57 46"
   id="svg2"
   version="1.1"
   inkscape:version="0.91 r13725"
   sodipodi:docname="icon-robot.svg">
  <metadata
     id="metadata11">
    <rdf:RDF>
      <cc:Work
         rdf:about="">
        <dc:format>image/svg+xml</dc:format>
        <dc:type
           rdf:resource="http://purl.org/dc/dcmitype/StillImage" />
        <dc:title></dc:title>
      </cc:Work>
    </rdf:RDF>
  </metadata>
  <sodipodi:namedview
     pagecolor="#ffffff"
     bordercolor="#666666"
     borderopacity="1"
     objecttolerance="10"
     gridtolerance="10"
     guidetolerance="10"
     inkscape:pageopacity="0"
     inkscape:pageshadow="2"
     inkscape:window-width="1539"
     inkscape:window-height="926"
     id="namedview9"
     showgrid="false"
     inkscape:zoom="9.3479516"
     inkscape:cx="19.214181"
     inkscape:cy="18.932351"
     inkscape:window-x="4"
     inkscape:window-y="23"
     inkscape:window-maximized="0"
     inkscape:current-layer="svg2"
     fit-margin-top="0"
     fit-margin-left="0"
     fit-margin-right="0"
     fit-margin-bottom="0" />
  <defs
     id="defs4">
    <style
       id="style6">

      .cls-2 {
        fill: #ff2837;
      }
    </style>
  </defs>
  <path
     d="m 52.22198,9.8232901 c 0,0 1.93316,12.2958429 1.93316,12.2958429 0.119864,0.756817 -0.388862,1.470428 -1.134529,1.591686 -0.07387,0.01115 -0.146346,0.01673 -0.217429,0.01673 -0.0014,0 -0.0014,0 -0.0028,0 -0.539389,3.321355 -2.848867,5.070537 -4.330445,5.655921 0,0 0,12.44637 0,12.44637 0,2.299721 -1.841171,4.170161 -4.106048,4.170161 0,0 -32.165434,0 -32.165434,0 -2.263483,0 -4.106047,-1.87044 -4.106047,-4.170161 0,0 0,-12.340444 0,-12.340444 -1.456491,-0.480851 -4.015453,-2.257908 -4.581324,-5.782753 -0.04181,0.0028 -0.07944,0.02091 -0.121258,0.02091 -0.08223,0 -0.164465,-0.007 -0.246697,-0.0223 -0.744274,-0.137983 -1.237668,-0.86135 -1.102473,-1.618168 0,0 2.256515,-12.5718091 2.256515,-12.5718091 C 2.984252,8.7040925 2.09642,7.2517837 2.09642,5.5806529 c 0,-2.5450249 2.037692,-4.61616775 4.542298,-4.61616775 2.505999,0 4.543692,2.07114285 4.543692,4.61616775 0,2.4307357 -1.867653,4.4084959 -4.21755,4.5813231 0,0 -1.123379,6.259423 -1.123379,6.259423 0.790268,-0.721973 1.623743,-1.17216 2.25094,-1.379832 0,0 0,-0.362381 0,-0.362381 0,-2.299721 1.842564,-4.171555 4.106047,-4.171555 0,0 3.764574,0 3.764574,0 0,0 0,-3.4649129 0,-3.4649129 0,-3.818931 5.641983,-7.0427221 12.318143,-7.0427221 6.677554,0 12.319537,3.2237911 12.319537,7.0427221 0,0 0,3.4649129 0,3.4649129 0,0 3.76318,0 3.76318,0 2.264877,0 4.106048,1.871834 4.106048,4.171555 0,0 0,0.468307 0,0.468307 0.596534,0.235547 1.328263,0.671798 2.023755,1.311538 0,0 -1.000727,-6.366743 -1.000727,-6.366743 -2.051631,-0.4432192 -3.597322,-2.2969339 -3.597322,-4.5116351 0,-2.5450249 2.037692,-4.61616775 4.542298,-4.61616775 2.505999,0 4.543692,2.07114285 4.543692,4.61616775 0,1.9011029 -1.138711,3.5359956 -2.759666,4.2426372 z M 6.638718,7.4148548 c 0.996546,0 1.806326,-0.8223246 1.806326,-1.8342019 0,-1.0118774 -0.80978,-1.8342019 -1.806326,-1.8342019 -0.995152,0 -1.804933,0.8223245 -1.804933,1.8342019 0,1.0118773 0.809781,1.8342019 1.804933,1.8342019 z M 8.092421,18.141312 c -0.836263,0.574234 -1.966611,1.772876 -1.966611,4.124167 0,2.347109 1.127561,3.545752 1.966611,4.122773 0,0 0,-8.24694 0,-8.24694 z M 28.281185,2.7805681 c -4.167374,0 -7.473397,1.4314022 -8.86438,2.8711671 0,0 17.730154,0 17.730154,0 C 35.754582,4.2119703 32.449952,2.7805681 28.281185,2.7805681 Z m 9.580778,5.6531329 c 0,0 -19.161556,0 -19.161556,0 0,0 0,2.07393 0,2.07393 0,0 19.161556,0 19.161556,0 0,0 0,-2.07393 0,-2.07393 z m 7.870622,6.245485 c 0,-0.766573 -0.614653,-1.390983 -1.368683,-1.390983 0,0 -32.165434,0 -32.165434,0 -0.75403,0 -1.368682,0.62441 -1.368682,1.390983 0,0 0,27.150649 0,27.150649 0,0.766574 0.614652,1.389589 1.368682,1.389589 0,0 32.165434,0 32.165434,0 0.75403,0 1.368683,-0.623015 1.368683,-1.389589 0,0 0,-27.150649 0,-27.150649 z m 2.737365,3.65586 c 0,0 0,7.862259 0,7.862259 0.794449,-0.636953 1.71155,-1.820264 1.71155,-3.931826 0,-2.110168 -0.915707,-3.292086 -1.71155,-3.930433 z M 50.437954,3.746451 c -0.995152,0 -1.804933,0.8223245 -1.804933,1.8342019 0,1.0118773 0.809781,1.8342019 1.804933,1.8342019 0.996546,0 1.806326,-0.8223246 1.806326,-1.8342019 0,-1.0118774 -0.80978,-1.8342019 -1.806326,-1.8342019 z m -7.099867,38.056902 c 0,0 -30.11241,0 -30.11241,0 -0.755423,0 -1.368682,-0.621621 -1.368682,-1.390983 0,0 0,-8.341716 0,-8.341716 0,-0.769361 0.613259,-1.390983 1.368682,-1.390983 0,0 30.11241,0 30.11241,0 0.755424,0 1.368683,0.621622 1.368683,1.390983 0,0 0,8.341716 0,8.341716 0,0.769362 -0.613259,1.390983 -1.368683,1.390983 z m -24.63768,-8.34311 c 0,0 -4.106047,0 -4.106047,0 0,0 0,1.390983 0,1.390983 0,0 4.106047,0 4.106047,0 0,0 0,-1.390983 0,-1.390983 z m 0,4.171555 c 0,0 -4.106047,0 -4.106047,0 0,0 0,1.390983 0,1.390983 0,0 4.106047,0 4.106047,0 0,0 0,-1.390983 0,-1.390983 z m 8.212095,-4.171555 c 0,0 -5.47473,0 -5.47473,0 0,0 0,1.390983 0,1.390983 0,0 5.47473,0 5.47473,0 0,0 0,-1.390983 0,-1.390983 z m 0,4.171555 c 0,0 -5.47473,0 -5.47473,0 0,0 0,1.390983 0,1.390983 0,0 5.47473,0 5.47473,0 0,0 0,-1.390983 0,-1.390983 z m 8.212096,-4.171555 c 0,0 -5.47473,0 -5.47473,0 0,0 0,1.390983 0,1.390983 0,0 5.47473,0 5.47473,0 0,0 0,-1.390983 0,-1.390983 z m 0,4.171555 c 0,0 -5.47473,0 -5.47473,0 0,0 0,1.390983 0,1.390983 0,0 5.47473,0 5.47473,0 0,0 0,-1.390983 0,-1.390983 z m 6.844807,-4.171555 c 0,0 -4.107442,0 -4.107442,0 0,0 0,1.390983 0,1.390983 0,0 4.107442,0 4.107442,0 0,0 0,-1.390983 0,-1.390983 z m 0,4.171555 c 0,0 -4.107442,0 -4.107442,0 0,0 0,1.390983 0,1.390983 0,0 4.107442,0 4.107442,0 0,0 0,-1.390983 0,-1.390983 z M 36.236827,26.880253 c -2.504606,0 -4.543692,-2.069749 -4.543692,-4.614774 0,-2.545025 2.039086,-4.614774 4.543692,-4.614774 2.504605,0 4.542298,2.069749 4.542298,4.614774 0,2.545025 -2.037693,4.614774 -4.542298,4.614774 z m 0,-6.448976 c -0.996546,0 -1.806327,0.822325 -1.806327,1.834202 0,1.011877 0.809781,1.834202 1.806327,1.834202 0.995152,0 1.804932,-0.822325 1.804932,-1.834202 0,-1.011877 -0.80978,-1.834202 -1.804932,-1.834202 z m -7.955642,8.858805 c -0.755424,0 -1.368683,-0.623015 -1.368683,-1.390983 0,0 0,-8.34311 0,-8.34311 0,-0.767967 0.613259,-1.389589 1.368683,-1.389589 0.756817,0 1.368683,0.621622 1.368683,1.389589 0,0 0,8.34311 0,8.34311 0,0.767968 -0.611866,1.390983 -1.368683,1.390983 z m -7.954248,-2.409829 c -2.505999,0 -4.543691,-2.069749 -4.543691,-4.614774 0,-2.545025 2.037692,-4.614774 4.543691,-4.614774 2.504606,0 4.542298,2.069749 4.542298,4.614774 0,2.545025 -2.037692,4.614774 -4.542298,4.614774 z m 0,-6.448976 c -0.996546,0 -1.806326,0.822325 -1.806326,1.834202 0,1.011877 0.80978,1.834202 1.806326,1.834202 0.995152,0 1.804933,-0.822325 1.804933,-1.834202 0,-1.011877 -0.809781,-1.834202 -1.804933,-1.834202 z"
     id="path-1"
     class="cls-2"
     inkscape:connector-curvature="0"
     style="fill:#ff2837;fill-rule:evenodd" />
</svg>
